<svg xmlns="http://www.w3.org/2000/svg" x="2px" y="2px"
width="16" height="18"
viewBox="0 0 164 150"
style=" fill:#000000;"><g transform="">
<g fill="none" fill-rule="nonzero" stroke="none" stroke-width="1" stroke-linecap="butt" 
stroke-linejoin="miter" stroke-miterlimit="10" stroke-dasharray="" stroke-dashoffset="0" font-family="none" 
font-weight="none" font-size="none" text-anchor="none" style="mix-blend-mode: normal">
<path d="M0,172v-172h172v172z" fill="#ffffff"></path>
<g><path d="M10.75,10.75h150.5v150.5h-150.5z" fill="#FFFFF"></path>
<path d="M159.1,12.9v146.2h-146.2v-146.2h146.2M163.4,8.6h-154.8v154.8h154.8v-154.8z" fill="#00A79D"></path>
<path d="M10.75,10.75h150.5v21.5h-150.5z" fill="#00A79D">
</path><path d="M159.1,12.9v17.2h-146.2v-17.2h146.2M163.4,8.6h-154.8v25.8h154.8v-25.8z" fill="#00A79D"></path>
<path d="M55.9,60.2h8.6v8.6h-8.6zM90.3,60.2h8.6v8.6h-8.6zM107.5,60.2h8.6v8.6h-8.6zM124.7,60.2h8.6v8.6h-8.6zM38.7,
77.4h8.6v8.6h-8.6zM55.9,77.4h8.6v8.6h-8.6zM90.3,77.4h8.6v8.6h-8.6zM107.5,77.4h8.6v8.6h-8.6zM124.7,
77.4h8.6v8.6h-8.6zM38.7,111.8h8.6v8.6h-8.6zM55.9,
111.8h8.6v8.6h-8.6zM90.3,111.8h8.6v8.6h-8.6zM73.1,60.2h8.6v8.6h-8.6zM73.1,77.4h8.6v8.6h-8.6zM38.7,94.6h8.6v8.6h-8.6zM55.9,
94.6h8.6v8.6h-8.6zM90.3,94.6h8.6v8.6h-8.6zM107.5,94.6h8.6v8.6h-8.6zM124.7,94.6h8.6v8.6h-8.6zM73.1,94.6h8.6v8.6h-8.6zM73.1,
111.8h8.6v8.6h-8.6zM107.5,111.8h8.6v8.6h-8.6zM12.9,146.2h146.2v12.9h-146.2z" fill="#00A79D"></path></g>
<path d="" fill="none"></path><path d="" fill="none"></path></g></g></svg>