<svg id="Layer_1" data-name="Layer 1" xmlns="http://www.w3.org/2000/svg" viewBox="0 0 579.49 71.56">
  <defs>
    <style>
      .cls-1 {
        fill: #00a79e;
      }

      .cls-2 {
        fill: none;
      }

      .cls-3 {
        fill: #fbb040;
      }

      .cls-4 {
        fill: #1e184e;
      }

      .cls-5 {
        fill: #ec098d;
      }

      .cls-6 {
        fill: #00a79d;
      }
    </style>
  </defs>
  <title>CENHEA_18623-1_LogoWithTrademark_RGB</title>
  <g>
    <path class="cls-1" d="M464.35,396c-.56.8-1.14,1.57-1.74,2.33a21.9,21.9,0,0,1-1.9,2.16,29,29,0,0,1-6.61,5.17,29.33,29.33,0,0,1-3.73,1.95A31.61,31.61,0,0,1,446.3,409a32.94,32.94,0,0,1-8.64,1.18,31,31,0,0,1-12.46-2.54,33,33,0,0,1-10.25-7,32.51,32.51,0,0,1-6.86-10.17,31.81,31.81,0,0,1,0-24.91,31.73,31.73,0,0,1,17.11-17.11A30.83,30.83,0,0,1,437.66,346a32.54,32.54,0,0,1,8.64,1.19,32,32,0,0,1,7.8,3.31,29.82,29.82,0,0,1,3.51,2.41,37.5,37.5,0,0,1,3.1,2.75,32.73,32.73,0,0,1,3.64,4.49,2,2,0,0,1,.25,1.83,2.27,2.27,0,0,1-1.35,1.31L457,365.8a3.06,3.06,0,0,1-2.08.13,3.32,3.32,0,0,1-1.82-1.15c-.28-.28-.57-.57-.85-.89s-.56-.6-.85-.89a20.9,20.9,0,0,0-4-3.13,17.75,17.75,0,0,0-2.29-1.19q-1.19-.51-2.37-.93a17,17,0,0,0-5.08-.76,19.44,19.44,0,0,0-8,1.69,20.45,20.45,0,0,0-6.35,4.66A23.75,23.75,0,0,0,419,370a20.34,20.34,0,0,0-1.61,8,19.91,19.91,0,0,0,1.61,8,23.75,23.75,0,0,0,4.32,6.7,19.92,19.92,0,0,0,14.32,6.35,17,17,0,0,0,5.08-.76q1.18-.42,2.37-.93a16.57,16.57,0,0,0,2.29-1.19,18.53,18.53,0,0,0,2.08-1.48c.65-.54,1.28-1.12,1.9-1.74.29-.28.57-.57.85-.89s.57-.61.85-.89a3.54,3.54,0,0,1,1.82-1.18,2.9,2.9,0,0,1,2.08.08l6.27,2.54a2.29,2.29,0,0,1,1.35,1.36A2,2,0,0,1,464.35,396Z" transform="translate(-304.66 -342.22)"/>
    <path class="cls-1" d="M494.34,360.12v10.26A2.6,2.6,0,0,0,497,373H521.7a2.54,2.54,0,0,1,1.87.77,2.51,2.51,0,0,1,.76,1.86v5.5a2.6,2.6,0,0,1-2.63,2.63H497a2.54,2.54,0,0,0-1.86.77,2.5,2.5,0,0,0-.76,1.86v9.32a2.61,2.61,0,0,0,2.62,2.63h28.56a2.61,2.61,0,0,1,2.63,2.62v5.42a2.63,2.63,0,0,1-2.63,2.64H485.1a2.63,2.63,0,0,1-2.63-2.64V349.62A2.61,2.61,0,0,1,485.1,347h40.42a2.61,2.61,0,0,1,2.63,2.63v5.25a2.61,2.61,0,0,1-2.63,2.62H497a2.61,2.61,0,0,0-2.62,2.63Z" transform="translate(-304.66 -342.22)"/>
    <path class="cls-1" d="M561.14,374.78v31.6a2.61,2.61,0,0,1-2.62,2.64h-6.7a2.42,2.42,0,0,1-1.77-.77,2.5,2.5,0,0,1-.77-1.87V348.43a1.21,1.21,0,0,1,1.06-1.32,2,2,0,0,1,1.82.47l37.2,35.17c.56.5,1,.67,1.4.5s.55-.62.55-1.35V349.7a2.61,2.61,0,0,1,2.62-2.63h6.61a2.61,2.61,0,0,1,2.63,2.63v57.87a1.19,1.19,0,0,1-1.06,1.31,2.24,2.24,0,0,1-1.91-.46l-37.11-34.57c-.56-.45-1-.59-1.4-.42S561.14,374.05,561.14,374.78Z" transform="translate(-304.66 -342.22)"/>
    <path class="cls-1" d="M665.73,357.49H653.27a2.61,2.61,0,0,0-2.63,2.63v46.26A2.61,2.61,0,0,1,648,409h-6.61a2.61,2.61,0,0,1-2.63-2.64V360.12a2.61,2.61,0,0,0-2.63-2.63H623.61a2.61,2.61,0,0,1-2.63-2.62v-5.25a2.61,2.61,0,0,1,2.63-2.63h42.12a2.57,2.57,0,0,1,1.86.76,2.53,2.53,0,0,1,.76,1.87v5.25a2.5,2.5,0,0,1-.76,1.86A2.53,2.53,0,0,1,665.73,357.49Z" transform="translate(-304.66 -342.22)"/>
    <path class="cls-1" d="M697.09,409H690.4a2.4,2.4,0,0,1-1.82-.77,2.62,2.62,0,0,1-.72-1.87V349.7a2.61,2.61,0,0,1,.72-1.86,2.4,2.4,0,0,1,1.82-.77h6.69a2.61,2.61,0,0,1,2.63,2.63v56.68a2.61,2.61,0,0,1-2.63,2.64Z" transform="translate(-304.66 -342.22)"/>
    <path class="cls-1" d="M776.61,349.45,749.5,407.91a1.86,1.86,0,0,1-3.22,0l-27-58.46a1.81,1.81,0,0,1,0-1.7,1.57,1.57,0,0,1,1.44-.68h7.88a4.18,4.18,0,0,1,2.2.68,3.65,3.65,0,0,1,1.53,1.7l14.49,31.18c.28.62.65.93,1.1.93s.82-.31,1.1-.93l14.49-31.18a3.65,3.65,0,0,1,1.53-1.7,4.16,4.16,0,0,1,2.2-.68h7.88a1.65,1.65,0,0,1,1.52.68A1.81,1.81,0,0,1,776.61,349.45Z" transform="translate(-304.66 -342.22)"/>
    <path class="cls-1" d="M817.77,410.2a31,31,0,0,1-12.46-2.54,32.5,32.5,0,0,1-17.11-17.12,32,32,0,0,1,0-25,32.33,32.33,0,0,1,17.11-17.15,31.91,31.91,0,0,1,25,0,32.33,32.33,0,0,1,17.11,17.15,32.13,32.13,0,0,1,0,25,32.5,32.5,0,0,1-17.11,17.12A31.2,31.2,0,0,1,817.77,410.2Zm0-53.3a18.26,18.26,0,0,0-7.91,1.74A21.52,21.52,0,0,0,799.12,370a21,21,0,0,0,0,16.06,22.22,22.22,0,0,0,4.36,6.73,21.12,21.12,0,0,0,6.42,4.67,18.93,18.93,0,0,0,15.81,0,21.16,21.16,0,0,0,6.43-4.67,22.61,22.61,0,0,0,4.36-6.73,21,21,0,0,0,0-16.06,22,22,0,0,0-4.36-6.73,21.53,21.53,0,0,0-6.43-4.62A18.22,18.22,0,0,0,817.81,356.9Z" transform="translate(-304.66 -342.22)"/>
  </g>
  <g>
    <path class="cls-2" d="M340.44,349.71a11,11,0,0,0-10.91,9.84h21.81A11,11,0,0,0,340.44,349.71Z" transform="translate(-304.66 -342.22)"/>
    <path class="cls-2" d="M329.53,396.45a11,11,0,0,0,21.81,0H329.53Z" transform="translate(-304.66 -342.22)"/>
    <path class="cls-2" d="M322,367.1a11,11,0,0,0,0,21.8V367.1Z" transform="translate(-304.66 -342.22)"/>
    <polygon class="cls-2" points="24.82 35.86 24.82 46.74 35.81 46.74 46.74 46.74 46.74 35.86 46.74 24.82 35.81 24.82 24.82 24.82 24.82 35.86"/>
    <path class="cls-2" d="M358.89,388.9a11,11,0,0,0,0-21.8v21.8Z" transform="translate(-304.66 -342.22)"/>
    <path class="cls-3" d="M329.48,360.67V367h11v-7.49H329.53C329.5,359.92,329.48,360.29,329.48,360.67Z" transform="translate(-304.66 -342.22)"/>
    <path class="cls-4" d="M340.47,396.45h10.87a10.37,10.37,0,0,0,.06-1.12V389H340.47Z" transform="translate(-304.66 -342.22)"/>
    <path class="cls-5" d="M358.89,378.08v-11a10.37,10.37,0,0,0-1.12-.06H351.4v11Z" transform="translate(-304.66 -342.22)"/>
    <path class="cls-5" d="M322,367.1v11h7.49V360.67c0-.38,0-.75,0-1.12a11,11,0,0,1,21.81,0h6.43c.36,0,.71,0,1.07.05a18.43,18.43,0,0,0-36.8,0c0,.36-.05.71-.05,1.07Z" transform="translate(-304.66 -342.22)"/>
    <path class="cls-1" d="M322,378.08V388.9a10.37,10.37,0,0,0,1.12.06h6.37V378.08Z" transform="translate(-304.66 -342.22)"/>
    <path class="cls-1" d="M358.89,388.9V378.08H351.4v17.25a10.37,10.37,0,0,1-.06,1.12,11,11,0,0,1-21.81,0h-6.42c-.36,0-.71,0-1.07-.05a18.43,18.43,0,0,0,36.8,0c0-.36.05-.71.05-1.07Z" transform="translate(-304.66 -342.22)"/>
    <path class="cls-4" d="M358.84,359.6c-.36,0-.71-.05-1.07-.05h-17.3V367h17.3a10.37,10.37,0,0,1,1.12.06,11,11,0,0,1,0,21.8v6.43c0,.36,0,.71-.05,1.07a18.43,18.43,0,0,0,0-36.8Z" transform="translate(-304.66 -342.22)"/>
    <path class="cls-3" d="M329.53,396.45h10.94V389H323.11a10.37,10.37,0,0,1-1.12-.06,11,11,0,0,1,0-21.8v-6.43c0-.36,0-.71.05-1.07a18.43,18.43,0,0,0,0,36.8c.36,0,.71.05,1.07.05Z" transform="translate(-304.66 -342.22)"/>
  </g>
  <path class="cls-6" d="M872.83,346a11.31,11.31,0,1,1-11.29,11.32A11.35,11.35,0,0,1,872.83,346Zm0,20.44a9.12,9.12,0,1,0-9.12-9.12A9.11,9.11,0,0,0,872.83,366.47Zm-4.06-14.31a.6.6,0,0,1,.6-.6H874a3.7,3.7,0,0,1,3.87,3.72,3.44,3.44,0,0,1-2.39,3.45l1.67,3.49a.58.58,0,0,1-.54.85h-1.41a.67.67,0,0,1-.57-.44l-1.57-3.71h-2v3.56a.59.59,0,0,1-.6.59h-1.16a.59.59,0,0,1-.6-.59Zm5.09,4.69a1.51,1.51,0,0,0,1.58-1.54,1.48,1.48,0,0,0-1.58-1.54h-2.79v3.08Z" transform="translate(-304.66 -342.22)"/>
</svg>
