<?xml version="1.0" encoding="UTF-8"?>
<svg width="21px" height="22px" viewBox="0 0 21 22" version="1.1" xmlns="http://www.w3.org/2000/svg" xmlns:xlink="http://www.w3.org/1999/xlink">
    <!-- Generator: Sketch 64 (93537) - https://sketch.com -->
    <title>Icon/export-2@1.5x</title>
    <desc>Created with Sketch.</desc>
    <defs>
        <path d="M18.2928932,12.2928932 C18.6834175,11.9023689 19.3165825,11.9023689 19.7071068,12.2928932 L19.7071068,12.2928932 L23.5139773,16.0983375 C23.8015271,16.2597242 24,16.6028212 24,17 L23.9971892,16.9248451 C23.998111,16.9371495 23.998806,16.9494677 23.9992744,16.9617928 L24,17 C24,17.013263 23.9997787,17.0264657 23.9993401,17.0396033 C23.9987817,17.050857 23.9981244,17.0625084 23.9972642,17.0741476 C23.9744915,17.4399273 23.7833077,17.7505015 23.5139773,17.9016625 L19.7071068,21.7071068 C19.3165825,22.0976311 18.6834175,22.0976311 18.2928932,21.7071068 C17.9023689,21.3165825 17.9023689,20.6834175 18.2928932,20.2928932 L18.2928932,20.2928932 L20.585,18 L12.8571429,18 C12.4175693,18 12.0552796,17.6139598 12.0057666,17.1166211 L12,17 C12,16.4477153 12.3837559,16 12.8571429,16 L12.8571429,16 L20.585,16 L18.2928932,13.7071068 C17.9324093,13.3466228 17.9046797,12.7793918 18.2097046,12.3871006 Z" id="path-1"></path>
    </defs>
    <g id="Page-1" stroke="none" stroke-width="1" fill="none" fill-rule="evenodd">
        <g id="3.-Reports:-Table-View" transform="translate(-1288.000000, -197.000000)">
            <g id="icons" transform="translate(1242.000000, 196.000000)">
                <g id="Icon/export-2" transform="translate(44.000000, 0.000000)">
                    <path d="M15.8125,1 C17.5729076,1 19,2.34314575 19,4 L19,9 L17,9 L17,4 C17,3.44771525 16.5149751,3 15.9166667,3 L5.08333333,3 C4.48502485,3 4,3.44771525 4,4 L4,20 C4,20.5522847 4.48502485,21 5.08333333,21 L15,21 L15,23 L5.1875,23 C3.42709236,23 2,21.6568542 2,20 L2,4 C2,2.34314575 3.42709236,1 5.1875,1 L15.8125,1 Z M14,8 C14.5522847,8 15,8.44771525 15,9 C15,9.55228475 14.5522847,10 14,10 L7,10 C6.44771525,10 6,9.55228475 6,9 C6,8.44771525 6.44771525,8 7,8 L14,8 Z M14,5 C14.5522847,5 15,5.44771525 15,6 C15,6.55228475 14.5522847,7 14,7 L7,7 C6.44771525,7 6,6.55228475 6,6 C6,5.44771525 6.44771525,5 7,5 L14,5 Z" id="Combined-Shape" fill="#7A7E81" fill-rule="nonzero"></path>
                    <mask id="mask-2" fill="white">
                        <use xlink:href="#path-1"></use>
                    </mask>
                    <use id="Shape" fill="#7A7E81" fill-rule="nonzero" transform="translate(18.000000, 17.000000) rotate(90.000000) translate(-18.000000, -17.000000) " xlink:href="#path-1"></use>
                </g>
            </g>
        </g>
    </g>
</svg>